# AST/ASF file generated using VICON BodyLanguage
# -----------------------------------------------
:version 1.10
:name VICON
:units
  mass 1.0
  length 0.45
  angle deg
:documentation
   .ast/.asf automatically generated from VICON data using
   VICON BodyBuilder and BodyLanguage model FoxedUp or BRILLIANT.MOD
:root
   order TX TY TZ RX RY RZ
   axis XYZ
   position 0 0 0  
   orientation 0 0 0 
:bonedata
  begin
     id 1 
     name lhipjoint
     direction 0.623415 -0.642378 0.445763 
     length 2.49859 
     axis 0 0 0  XYZ
  end
  begin
     id 2 
     name lfemur
     direction 0.34202 -0.939693 0  
     length 6.69689  
     axis 0 0 20  XYZ
    dof rx ry rz
    limits (-160.0 20.0)
           (-70.0 70.0)
           (-60.0 70.0)
  end
  begin
     id 3 
     name ltibia
     direction 0.34202 -0.939693 0   
     length 7.37574   
     axis 0 0 20   XYZ
    dof rx
    limits (-10.0 170.0)
  end
  begin
     id 4 
     name lfoot
     direction 0.084323 -0.231675 0.969132   
     length 2.09111   
     axis -90 7.62852e-016 20   XYZ
    dof rx rz
    limits (-45.0 90.0)
           (-70.0 20.0)
  end
  begin
     id 5 
     name ltoes
     direction 1.5357e-011 -4.21957e-011 1   
     length 1.04989   
     axis -90 7.62852e-016 20   XYZ
    dof rx
    limits (-90.0 20.0)
  end
  begin
     id 6 
     name rhipjoint
     direction -0.605402 -0.653903 0.45376   
     length 2.45455  
     axis 0 0 0  XYZ 
  end
  begin
     id 7 
     name rfemur
     direction -0.34202 -0.939693 0   
     length 6.64523   
     axis 0 0 -20   XYZ
    dof rx ry rz
    limits (-160.0 20.0)
           (-70.0 70.0)
           (-70.0 60.0)
  end
  begin
     id 8 
     name rtibia
     direction -0.34202 -0.939693 0   
     length 7.3339   
     axis 0 0 -20   XYZ
    dof rx
    limits (-10.0 170.0)
 end
 begin
     id 9 
     name rfoot
     direction -0.120854 -0.332043 0.93549   
     length 2.23135  
     axis -90 -7.62852e-016 -20   XYZ
    dof rx rz
    limits (-45.0 90.0)
           (-20.0 70.0)
  end
  begin
     id 10 
     name rtoes
     direction -1.53563e-011 -4.21914e-011 1   
     length 1.10614   
     axis -90 -7.62852e-016 -20   XYZ
    dof rx
    limits (-90.0 20.0)
  end
  begin
     id 11 
     name lowerback
     direction 0.0319682 0.998615 -0.0417941   
     length 2.02718   
     axis 0 0 0   XYZ
    dof rx ry rz
    limits (-20.0 45.0)
           (-30.0 30.0)
           (-30.0 30.0)
  end
  begin
     id 12 
     name upperback
     direction 7.63181e-005 0.995808 0.0914691   
     length 1.97539   
     axis 0 0 0   XYZ
    dof rx ry rz
    limits (-20.0 45.0)
           (-30.0 30.0)
           (-30.0 30.0)
  end
  begin
     id 13 
     name thorax
     direction -0.016423 0.993627 0.111514   
     length 2.00349   
     axis 0 0 0   XYZ
    dof rx ry rz
    limits (-20.0 45.0)
           (-30.0 30.0)
           (-30.0 30.0)
  end
  begin
     id 14 
     name lowerneck
     direction -0.174763 0.981668 -0.0760716   
     length 1.71436   
     axis 0 0 0   XYZ
    dof rx ry rz
    limits (-20.0 45.0)
           (-30.0 30.0)
           (-30.0 30.0)
  end
  begin
     id 15 
     name upperneck
     direction 0.345458 0.934587 -0.0848868   
     length 1.72805   
     axis 0 0 0   XYZ
    dof rx ry rz
    limits (-20.0 45.0)
           (-30.0 30.0)
           (-30.0 30.0)
  end
  begin
     id 16
     name head
     direction 0.13001 0.989848 -0.0574291  
     length 1.767  
     axis 0 0 0   XYZ
    dof rx ry rz
    limits (-20.0 45.0)
           (-30.0 30.0)
           (-30.0 30.0)
  end
  begin
     id 17 
     name lclavicle
     direction 0.952951 0.290122 0.0878234  
     length 3.54654  
     axis 0 0 0   XYZ
    dof ry rz
    limits (-20.0 10.0)
           (0.0 20.0)
  end
  begin
     id 18 
     name lhumerus
     direction 1 -4.48957e-011 -4.56525e-028   
     length 5.19807   
     axis 180 -30 -90   XYZ
    dof rx ry rz
    limits (-60.0 90.0)
           (-90.0 90.0)
           (-90.0 90.0)
  end
  begin
     id 19
     name lradius
     direction 1 -4.48979e-011 -2.0317e-027   
     length 3.0937   
     axis 180 -30 -90   XYZ
    dof rx
    limits (-10.0 170.0)
  end
  begin
     id 20
     name lwrist
     direction 1 -4.48953e-011 -3.05809e-027   
     length 1.54685   
     axis 8.48514e-016 90 90   XYZ
    dof ry
    limits (-180.0 0.0)
 end
  begin
     id 21 
     name lhand
     direction 1 -4.48952e-011 -6.11639e-027   
     length 0.672632   
     axis 3.9013e-015 90 90   XYZ
    dof rx rz
    limits (-90.0 90.0)
           (-45.0 45.0)
  end
  begin
     id 22 
     name lfingers
     direction 1 -4.48925e-011 -1.22426e-026   
     length 0.542293   
     axis 7.80276e-015 90 90   XYZ
    dof rx
    limits (0.0 90.0)
  end
  begin
     id 23
     name lthumb
     direction 0.707107 -6.3486e-011 0.707107   
     length 0.778628   
     axis -90 45 5.37419e-014   XYZ
    dof rx rz
    limits (-45.0 45.0)
           (-45.0 45.0)
  end
  begin
     id 24 
     name rclavicle
     direction -0.960732 0.273675 -0.0457849   
     length 3.52079  
     axis 0 0 0   XYZ 
    dof ry rz
    limits (-10.0 20.0)
           (-20.0 0.0)
  end
  begin
     id 25 
     name rhumerus
     direction -1 -4.48976e-011 -1.63613e-027  
     length 5.45222   
     axis 180 30 90   XYZ
    dof rx ry rz
    limits (-90.0 60.0)
           (-90.0 90.0)
           (-90.0 90.0)
  end
  begin
     id 26 
     name rradius
     direction -1 -4.48957e-011 -7.00033e-028   
     length 3.01284   
     axis 180 30 90   XYZ
    dof rx
    limits (-10.0 170.0)
  end
  begin
     id 27 
     name rwrist
     direction -1 -4.48983e-011 -3.05543e-027   
     length 1.50642   
     axis 8.48514e-016 -90 -90   XYZ
    dof ry
    limits (-180.0 0.0)
  end
  begin
     id 28
     name rhand
     direction -1 -4.48984e-011 -6.11072e-027   
     length 0.622296   
     axis 3.9013e-015 -90 -90   XYZ
    dof rx rz
    limits (-90.0 90.0)
           (-45.0 45.0)
  end
  begin
     id 29
     name rfingers
     direction -1 -4.48865e-011 -1.22637e-026   
     length 0.501711   
     axis 7.80276e-015 -90 -90   XYZ
    dof rx
    limits (0.0 90.0)
  end
  begin
     id 30
     name rthumb
     direction -0.707107 -6.34932e-011 0.707107   
     length 0.72036   
     axis -90 -45 -5.37419e-014   XYZ
    dof rx rz
    limits (-45.0 45.0)
           (-45.0 45.0)
  end
:hierarchy
  begin
    root lhipjoint rhipjoint lowerback
    lhipjoint lfemur
    lfemur ltibia
    ltibia lfoot
    lfoot ltoes
    rhipjoint rfemur
    rfemur rtibia
    rtibia rfoot
    rfoot rtoes
    lowerback upperback
    upperback thorax
    thorax lowerneck lclavicle rclavicle
    lowerneck upperneck
    upperneck head
    lclavicle lhumerus
    lhumerus lradius
    lradius lwrist
    lwrist lhand lthumb
    lhand lfingers
    rclavicle rhumerus
    rhumerus rradius
    rradius rwrist
    rwrist rhand rthumb
    rhand rfingers
  end

#!OML:ASF H:\Not Pregnant\Project 1\Capture day 1\Session 1\non-pregnant.ASF
:FULLY-SPECIFIED
:DEGREES
171
root -5.76317 16.3551 35.0326 145.738 -83.8512 -132.256
lowerback -13.6861 2.79806 4.36573
upperback -6.59988 2.86223 -1.25036
thorax 0.989886 1.18251 -3.35478
lowerneck 16.6827 -9.145 -29.3588
upperneck -4.74962 -19.4348 41.7702
head 3.82083 -12.2006 20.5068
rclavicle -5.06901e-015 -7.95139e-015
rhumerus 9.73026 -22.6964 -62.4714
rradius 103.135
rwrist 62.4221
rhand -54.6565 29.5401
rfingers 7.12502
rthumb -27.0516 1.45766
lclavicle -5.06901e-015 -7.95139e-015
lhumerus -42.1897 -7.61998 87.6619
lradius 31.8224
lwrist 45.326
lhand 14.0079 -7.15477
lfingers 7.12502
lthumb 38.917 18.389
rfemur 0 0 0
rtibia 0
rfoot 0 0
rtoes 0
lfemur -16.9855 5.98365 -16.8341
ltibia 15.8529
lfoot -13.5694 -6.42638
ltoes -16.4678
172
root -5.76273 16.355 35.035 146.083 -83.8696 -132.613
lowerback -13.6779 2.80308 4.3823
upperback -6.57547 2.86918 -1.2696
thorax 1.01348 1.18714 -3.383
lowerneck 16.6312 -9.14897 -29.3312
upperneck -4.71763 -19.4303 41.7697
head 3.83352 -12.1934 20.496
rclavicle 7.10655e-015 -3.18055e-015
rhumerus 9.4324 -22.9786 -62.2847
rradius 103.213
rwrist 65.7376
rhand -55.3616 33.7882
rfingers 7.12502
rthumb -27.7259 5.81244
lclavicle 7.10655e-015 -3.18055e-015
lhumerus -42.0981 -7.75826 87.6855
lradius 31.7952
lwrist 45.3169
lhand 14.1194 -7.10444
lfingers 7.12502
lthumb 39.0221 18.4093
rfemur 0 0 0
rtibia 0
rfoot 0 0
rtoes 0
lfemur -16.9532 5.96626 -16.8845
ltibia 15.8115
lfoot -13.543 -6.41203
ltoes -16.4586
173
root -5.76213 16.3549 35.0371 146.357 -83.8801 -132.899
lowerback -13.6657 2.80691 4.40236
upperback -6.54877 2.87434 -1.28142
thorax 1.03691 1.19105 -3.40577
lowerneck 16.5797 -9.14751 -29.3141
upperneck -4.69701 -19.4196 41.7854
head 3.84494 -12.1851 20.4993
rclavicle -1.41137e-014 -1.51076e-014
rhumerus 9.08686 -23.065 -62.0849
rradius 103.308
rwrist 67.7678
rhand -55.6864 37.7696
rfingers 7.12502
rthumb -28.0365 9.84427
lclavicle -1.41137e-014 -1.51076e-014
lhumerus -42.0053 -7.88019 87.7024
lradius 31.7995
lwrist 45.3872
lhand 14.2801 -7.01915
lfingers 7.12502
lthumb 39.1736 18.4509
rfemur 0 0 0
rtibia 0
rfoot 0 0
rtoes 0
lfemur -16.9285 5.95653 -16.9224
ltibia 15.783
lfoot -13.5218 -6.40251
ltoes -16.4652
174
root -5.76137 16.3548 35.0386 146.496 -83.8736 -133.049
lowerback -13.6486 2.81026 4.43594
upperback -6.51923 2.87743 -1.28308
thorax 1.06058 1.19397 -3.42593
lowerneck 16.5234 -9.14085 -29.3092
upperneck -4.68622 -19.4029 41.8183
head 3.85689 -12.1753 20.5169
rclavicle -6.85807e-015 -1.35174e-014
rhumerus 8.69284 -22.9744 -61.8596
rradius 103.399
rwrist 68.6341
rhand -55.657 40.7082
rfingers 7.12502
rthumb -28.0084 12.7782
lclavicle -6.85807e-015 -1.35174e-014
lhumerus -41.9182 -8.01064 87.7321
lradius 31.8234
lwrist 45.4234
lhand 14.4053 -6.98111
lfingers 7.12502
lthumb 39.2916 18.4548
rfemur 0 0 0
rtibia 0
rfoot 0 0
rtoes 0
lfemur -16.9154 5.94672 -16.9324
ltibia 15.7796
lfoot -13.5119 -6.38258
ltoes -16.496
175
root -5.76069 16.3546 35.0395 146.428 -83.8497 -132.994
lowerback -13.6275 2.81815 4.49051
upperback -6.4862 2.88433 -1.2798
thorax 1.08678 1.19873 -3.45222
lowerneck 16.4709 -9.13306 -29.3082
upperneck -4.69127 -19.3869 41.8743
head 3.869 -12.1691 20.5498
rclavicle -3.03147e-015 1.51076e-014
rhumerus 8.24762 -22.7707 -61.6272
rradius 103.478
rwrist 68.4999
rhand -55.3519 41.8333
rfingers 7.12502
rthumb -27.7167 13.8561
lclavicle -3.03147e-015 1.51076e-014
lhumerus -41.8366 -8.16778 87.7739
lradius 31.8645
lwrist 45.4397
lhand 14.4928 -6.98913
lfingers 7.12502
lthumb 39.374 18.4227
rfemur 0 0 0
rtibia 0
rfoot 0 0
rtoes 0
lfemur -16.9135 5.94461 -16.909
ltibia 15.8041
lfoot -13.5179 -6.36371
ltoes -16.5393
